<?xml version="1.0" encoding="utf-8"?>
<!-- Generator: Adobe Illustrator 17.0.0, SVG Export Plug-In . SVG Version: 6.00 Build 0)  -->
<!DOCTYPE svg PUBLIC "-//W3C//DTD SVG 1.1//EN" "http://www.w3.org/Graphics/SVG/1.1/DTD/svg11.dtd">
<svg version="1.1" id="Layer_1" xmlns="http://www.w3.org/2000/svg" xmlns:xlink="http://www.w3.org/1999/xlink" x="0px" y="0px"
	 width="1231px" height="442px" viewBox="0 0 1231 442" enable-background="new 0 0 1231 442" xml:space="preserve">
<g>
	<path fill="#4EB69F" d="M223.31,343.347c-1.129-2.165-3.559-2.038-5.359-3.014c-8.779-4.758-13.705-12.016-13.797-22.059
		c-0.157-17.236-0.181-31.915,0-49.151c0.143-13.676,11.548-24.49,25.225-24.333c13.442,0.155,24.478,10.869,24.611,24.281
		c0.166,16.81,0.061,31.063,0.035,47.874c-0.019,12.259-5.905,20.634-17.303,24.795c-1.111,0.406-2.663-0.006-3.171,1.605
		C230.137,343.347,226.724,343.347,223.31,343.347z"/>
	<path fill="#22243F" d="M1225.615,258.862c-0.491,0.343-1.305,0.598-1.425,1.04c-4.573,16.925-17.143,23.642-33.131,25.327
		c-15.382,1.621-30.083-0.747-43.606-9.014c-4.66-2.849-6.55-5.521-2.938-10.44c1.459-1.986,2.293-4.431,3.64-7.124
		c11.811,10.166,25.11,14.342,40.036,12.979c8.618-0.787,16.475-3.319,20.213-12.163c3.551-8.401,0.399-17.92-7.615-23.581
		c-5.788-4.089-12.346-6.655-18.939-9.105c-6.786-2.522-13.564-5.051-19.923-8.567c-13.907-7.691-19.901-18.804-17.781-33.016
		c1.966-13.177,10.88-22.278,26.132-25.232c16.82-3.258,33.108-1.621,47.907,7.996c7.17,4.659-0.166,8.363-1.199,12.197
		c-1.322,4.904-4.064,0.64-5.644-0.294c-11.502-6.798-23.789-9.135-36.87-6.72c-7.254,1.339-13.544,4.468-15.329,12.506
		c-1.783,8.03,1.425,14.373,9.351,19.225c6.58,4.027,13.831,6.564,21.054,9.126c7.646,2.712,14.994,5.952,21.799,10.477
		c7.459,4.961,10.684,12.717,14.269,20.304C1225.615,249.474,1225.615,254.168,1225.615,258.862z"/>
	<path fill="#1F213C" d="M491.668,171.576c11.828-12.518,25.342-16.146,40.451-15.773c22.464,0.554,37.609,13.991,40.714,36.365
		c0.912,6.572,1.066,13.16,1.049,19.778c-0.055,21.544-0.15,43.089,0.085,64.631c0.05,4.57-0.781,6.42-5.854,6.211
		c-10.222-0.419-20.479-0.333-30.708-0.027c-4.321,0.129-5.38-1.29-5.32-5.449c0.231-15.995,0.095-31.995,0.095-47.993
		c0-5.759,0.016-11.519-0.002-17.278c-0.025-7.896-0.626-15.918-8.641-19.947c-8.803-4.425-17.363-2.302-25.392,2.938
		c-3.581,2.337-4.79,5.239-4.75,9.565c0.22,23.888-0.085,47.782,0.248,71.668c0.077,5.52-1.591,6.741-6.78,6.521
		c-10.007-0.425-20.049-0.262-30.069-0.049c-3.603,0.077-4.759-0.985-4.748-4.671c0.119-38.182,0.117-76.364,0.001-114.546
		c-0.011-3.519,0.806-4.808,4.543-4.709c9.592,0.254,19.205,0.341,28.79-0.023c4.863-0.185,7.212,0.973,6.332,6.211
		C491.435,166.638,491.668,168.361,491.668,171.576z"/>
	<path fill="#1F213C" d="M395.225,230.367c-11.088,0-22.18,0.153-33.263-0.079c-4.131-0.087-4.477,1.201-3.373,4.772
		c3.062,9.907,11.004,16.099,23.035,17.176c12.47,1.117,24.273-1.089,34.703-8.306c3.209-2.221,4.424-1.681,5.91,1.683
		c2.836,6.421,5.935,12.741,9.245,18.931c1.643,3.072,1.054,4.824-1.654,6.816c-6.259,4.603-13.051,8.127-20.463,10.253
		c-16.033,4.599-32.31,5.643-48.666,1.94c-20.437-4.628-34.033-16.991-40.079-37.096c-4.896-16.279-5.23-32.823-0.504-49.201
		c8.069-27.964,32.476-43.545,64.115-41.3c27.261,1.934,43.933,18.066,47.664,46.184c1.039,7.831,1.174,15.711,1.289,23.606
		c0.054,3.676-1.082,4.758-4.698,4.693C417.404,230.24,406.314,230.366,395.225,230.367z M376.347,207.537
		c5.303,0,10.622-0.247,15.904,0.08c4.069,0.252,4.48-1.509,3.961-4.864c-1.465-9.463-8.987-15.46-19.012-14.918
		c-10.231,0.553-18.807,8.074-19.553,16.818c-0.264,3.096,1.422,2.904,3.426,2.893C366.165,207.516,371.256,207.536,376.347,207.537
		z"/>
	<path fill="#4EB69F" d="M5.538,225.703c-0.051-36.376-0.101-72.752-0.153-109.128c3.037-13.277,11.854-20.448,25.341-20.451
		C47.761,96.12,64.8,95.98,81.829,96.327c14.929,0.305,25.298,11.286,24.992,25.752c-0.288,13.585-11.123,23.894-25.366,24.135
		c-15.856,0.268-25.99,10.09-26.223,25.922c-0.231,15.755,0.075,31.518-0.104,47.274c-0.138,12.154-6.955,21.726-17.322,25.014
		c-10.563,3.351-21.766-0.362-28.306-9.432C7.491,232.205,5.994,229.168,5.538,225.703z"/>
	<path fill="#4EB69F" d="M253.859,159.203c0,11.928,0.055,23.857-0.014,35.785c-0.083,14.406-10.679,25.452-25.089,26.284
		c-12.508,0.722-23.055-9.192-24.916-23.295c-1.149-8.707-0.387-17.44-0.543-26.159c-0.259-14.455-9.52-24.339-24.027-25.42
		c-16.177-1.206-25.914-11.548-25.235-26.804c0.606-13.634,11.682-23.281,26.797-23.3c15.549-0.019,31.099-0.035,46.648,0.004
		c15.889,0.04,26.29,10.478,26.368,26.481C253.906,134.92,253.859,147.061,253.859,159.203z"/>
	<path fill="#22243F" d="M675.778,269.09c-15.822,16.619-33.826,19.034-53.148,14.856c-13.736-2.97-22.306-13.517-23.936-27.49
		c-1.822-15.612,3.883-28.044,16.075-34.869c9.549-5.346,20.045-7.073,30.762-7.42c8.51-0.276,17.067-0.478,25.532,0.817
		c3.062,0.468,4.117-0.342,4.112-3.566c-0.009-6.213-0.32-12.379-1.794-18.406c-2.935-11.995-10.364-18.593-22.622-20.21
		c-14.701-1.94-27.868,1.394-39.215,11.312c-1.404,1.227-2.978,5.912-5.558,1.631c-1.992-3.304-8.567-5.968-2.654-11.485
		c9.551-8.91,20.777-13.913,33.687-15.329c0.212-0.023,0.426-0.022,0.638-0.039c34.96-2.747,51.818,11.877,52.785,46.872
		c0.666,24.072,0.155,48.175,0.348,72.262c0.029,3.632-1.063,5.097-4.698,4.683c-1.684-0.192-3.436-0.234-5.107,0.005
		c-4.382,0.628-5.73-1.329-5.253-5.433C675.99,275.07,675.778,272.8,675.778,269.09z M675.104,242.413
		c0-3.837,0.005-7.674-0.002-11.511c-0.003-1.688,0.286-3.688-2.242-3.733c-15.055-0.273-30.276-2.57-44.882,3.202
		c-10.218,4.038-15.227,12.278-13.911,22.54c1.384,10.798,8.266,17.614,19.35,18.788c6.376,0.675,12.746,0.454,19.053-1.069
		C669.004,266.637,675.104,259.097,675.104,242.413z"/>
	<path fill="#22243F" d="M824.335,262.06c7.152-19.014,13.968-37.065,20.73-55.136c4.922-13.154,9.992-26.26,14.536-39.544
		c1.577-4.61,3.763-6.582,8.637-5.914c2.914,0.399,5.927,0.073,9.795,0.073c-4.499,11.451-8.75,22.288-13.014,33.12
		c-12.082,30.694-24.098,61.415-36.299,92.062c-3.625,9.104-8.094,17.812-13.606,25.98c-10.913,16.168-27.056,21.032-45.381,21.486
		c-2.292,0.057-3.085-0.805-3.048-2.896c0.022-1.279,0.162-2.584-0.035-3.833c-0.947-6.016,0.782-8.337,7.612-8.461
		c17.114-0.311,27.93-10.278,35.808-24.849c4.898-9.059,5.692-16.777,1.25-26.705c-14.773-33.02-28.226-66.629-42.479-99.886
		c-2.328-5.432-1.081-6.269,4.229-6.116c10.333,0.298,10.35,0.056,14.309,9.831c11.187,27.617,22.36,55.239,33.551,82.853
		C821.881,256.468,822.922,258.775,824.335,262.06z"/>
	<path fill="#4EB69F" d="M129.244,195.976c8.317,0,16.639-0.184,24.951,0.041c14.683,0.397,24.577,10.819,24.491,25.491
		c-0.081,13.841-10.668,24.398-24.915,24.519c-16.42,0.139-32.843,0.129-49.263,0.003c-14.153-0.109-24.49-10.219-24.743-23.899
		c-0.274-14.794,9.446-25.558,23.891-26.048c8.52-0.289,17.058-0.053,25.588-0.053C129.244,196.012,129.244,195.994,129.244,195.976
		z"/>
	<path fill="#22243F" d="M1089.301,158.654c11.74-0.234,22.872,1.839,32.967,8.275c7.438,4.742,0.036,8.367-1.112,12.118
		c-1.439,4.703-4.091,0.56-5.742-0.408c-31.777-18.633-69.28,0.89-71.726,37.532c-1.016,15.224,0.558,30.03,11.142,42.106
		c13.187,15.046,40.659,17.968,60.413,7.089c1.463-0.806,4.13-5.515,5.608-0.532c1.13,3.81,7.932,8.415,0.38,12.263
		c-23.473,11.963-47.057,12.368-70.149-0.897c-8.557-4.915-14.176-12.85-17.789-22c-6.967-17.642-7.856-35.83-2.744-53.933
		C1038.149,173.35,1059.427,158.654,1089.301,158.654z"/>
	<path fill="#21233E" d="M906.799,217.779c0-14.141-0.33-25.662,0.146-37.15c0.222-5.354-1.682-6.731-6.445-6.09
		c-1.674,0.225-3.447-0.208-5.102,0.081c-5.569,0.972-6.479-1.571-6.546-6.652c-0.072-5.438,1.602-6.735,6.812-6.554
		c11.126,0.386,11.136,0.097,11.136-11.294c0-2.557,0.358-5.176-0.068-7.66c-1.192-6.954,1.924-8.292,8.288-8.155
		c5.438,0.117,7.711,1.117,7.073,7.007c-0.571,5.266,0.053,10.65-0.184,15.966c-0.149,3.347,0.959,4.422,4.33,4.334
		c8.305-0.217,16.635,0.237,24.926-0.167c6.671-0.325,4.134,4.305,4.429,7.31c0.304,3.104,0.977,6.296-4.453,5.956
		c-8.278-0.518-16.617,0.014-24.922-0.204c-3.416-0.09-4.327,1.106-4.308,4.385c0.133,22.8,0.057,45.601,0.165,68.402
		c0.014,2.952,0.434,5.964,1.118,8.84c2.282,9.586,7.229,13.73,16.932,14.359c2.543,0.165,5.117,0.145,7.661-0.031
		c8.108-0.561,7.933-0.605,7.95,7.436c0.007,3.333-0.848,4.993-4.334,5.641c-8.314,1.545-16.595,1.776-24.663-0.75
		c-10.868-3.402-16.52-11.573-18.587-22.361C905.275,245.424,907.586,230.231,906.799,217.779z"/>
	<path fill="#21233E" d="M743.109,194.309c0,27.269-0.143,54.539,0.125,81.806c0.052,5.255-1.225,6.969-6.634,6.69
		c-8.878-0.457-8.896-0.102-8.896-8.785c0-54.112-0.018-108.224,0.067-162.335c0.003-2.088-1.448-5.559,1.397-6.093
		c4.284-0.804,8.967-1.164,13.182,0.303c1.74,0.605,0.717,3.501,0.721,5.33C743.125,138.919,743.109,166.614,743.109,194.309z"/>
	<path fill="#4FB6A0" d="M51.821,344.673c-12.763-0.012-25.529-0.184-38.288,0.036c-5.764,0.1-8.018-2.154-7.918-7.918
		c0.221-12.759,0.048-25.525,0.036-38.289c1.348-2.907,3.764-3.669,6.772-3.653c11.664,0.064,23.328,0.11,34.991-0.01
		c5.619-0.058,8.127,2.437,8.07,8.061c-0.119,11.663-0.073,23.328-0.01,34.991C55.49,340.9,54.703,343.307,51.821,344.673z"/>
	<path fill="#262843" d="M998.07,222.434c0,18.107-0.152,36.216,0.105,54.319c0.065,4.586-0.835,6.905-5.856,5.984
		c-1.237-0.227-2.576-0.2-3.824-0.004c-4.61,0.723-5.654-1.329-5.618-5.698c0.198-24.283,0.097-48.568,0.097-72.852
		c0-12.355,0.188-24.715-0.102-37.063c-0.104-4.442,1.139-6.294,5.662-5.638c1.669,0.242,3.43,0.232,5.101-0.001
		c3.834-0.534,4.526,1.289,4.501,4.716C997.997,184.942,998.07,203.688,998.07,222.434z"/>
	<path fill="#2D2F49" d="M982.404,127.792c0.778-2.639-1.867-7.483,1.472-8.728c3.896-1.452,8.742-0.46,13.17-0.326
		c1.629,0.049,1.71,1.581,1.718,2.879c0.014,2.115,0.009,4.231,0.009,6.346c0,10.44-0.011,10.135-10.257,10.504
		c-5.128,0.185-6.934-1.438-6.142-6.369C982.573,130.861,982.404,129.565,982.404,127.792z"/>
	<path fill="#4EB69F" d="M234.8,247.35c1.129,2.165,3.559,2.038,5.359,3.014c8.779,4.758,13.705,12.016,13.797,22.059
		c0.157,17.236,0.181,31.915,0,49.151c-0.143,13.676-11.548,24.49-25.225,24.333c-13.442-0.155-24.478-10.869-24.611-24.281
		c-0.166-16.81-0.061-31.063-0.035-47.874c0.019-12.259,5.905-20.634,17.303-24.795c1.111-0.406,2.663,0.006,3.171-1.605
		C227.973,247.35,231.386,247.35,234.8,247.35z"/>
</g>
</svg>
